<svg xmlns="http://www.w3.org/2000/svg" viewBox="0 0 720 480" preserveAspectRatio="xMidYMid slice">
<defs><linearGradient id="a" x1="0" y1="0" x2="1" y2="1"><stop stop-color="#f8e6c6"/><stop offset=".5" stop-color="#e5b979"/><stop offset="1" stop-color="#415a50"/></linearGradient><linearGradient id="w" x1="0" y1="0" x2="0" y2="1"><stop stop-color="#dca96d" stop-opacity=".25"/><stop offset="1" stop-color="#315348" stop-opacity=".92"/></linearGradient></defs>
<rect width="720" height="480" fill="url(#a)"/><circle cx="194" cy="83" r="31" fill="#fff2c9"/><g fill="#7d826e" opacity=".30"><rect x="22" y="150" width="34" height="86"/><rect x="66" y="126" width="45" height="110"/><rect x="123" y="163" width="28" height="73"/><rect x="162" y="139" width="41" height="97"/><rect x="218" y="154" width="31" height="82"/><rect x="264" y="120" width="49" height="116"/></g><path d="M0 220 C125 197 243 225 359 205 C482 184 596 146 720 132 L720 286 L0 286Z" fill="#747663" opacity=".25"/><rect y="245" width="720" height="235" fill="url(#w)"/><g stroke="#f0d198" opacity=".55" fill="none" stroke-width="2"><path d="M0 310 C130 287 250 323 375 300 S600 298 720 279"/><path d="M0 364 C143 338 289 379 432 348 S611 367 720 338"/><path d="M0 420 C155 392 312 436 476 399 S627 425 720 397"/></g><g fill="#203b36"><path d="M300 390 Q408 432 548 390 L526 426 Q408 449 318 421Z"/><path d="M444 362 Q555 407 694 359 L669 410 Q553 439 468 402Z"/></g><g fill="#172f2c"><circle cx="490" cy="321" r="9"/><rect x="485" y="330" width="10" height="41" rx="4"/><circle cx="553" cy="343" r="8"/><rect x="549" y="351" width="9" height="33" rx="4"/></g><g fill="#294137" opacity=".68"><path d="M548 0 C582 77 559 117 598 166 C627 202 670 184 720 156 L720 0Z"/><circle cx="607" cy="103" r="58"/><circle cx="668" cy="118" r="54"/><rect x="620" y="124" width="12" height="149"/></g><rect width="280" height="480" fill="#f4eee4" opacity=".54"/></svg>